<?xml version="1.0" encoding="UTF-8" standalone="no"?>
<svg
   xmlns:dc="http://purl.org/dc/elements/1.1/"
   xmlns:cc="http://creativecommons.org/ns#"
   xmlns:rdf="http://www.w3.org/1999/02/22-rdf-syntax-ns#"
   xmlns:svg="http://www.w3.org/2000/svg"
   xmlns="http://www.w3.org/2000/svg"
   xmlns:xlink="http://www.w3.org/1999/xlink"
   xmlns:sodipodi="http://sodipodi.sourceforge.net/DTD/sodipodi-0.dtd"
   xmlns:inkscape="http://www.inkscape.org/namespaces/inkscape"
   width="248.07118mm"
   height="41.06897mm"
   viewBox="0 0 248.07118 41.068972"
   version="1.1"
   id="svg8"
   inkscape:version="1.0.1 (1.0.1+r75)"
   sodipodi:docname="logo2.svg">
  <defs
     id="defs2">
    <linearGradient
       inkscape:collect="always"
       id="linearGradient889">
      <stop
         style="stop-color:#c06aea;stop-opacity:1;"
         offset="0"
         id="stop885" />
      <stop
         style="stop-color:#6aead3;stop-opacity:1"
         offset="1"
         id="stop887" />
    </linearGradient>
    <linearGradient
       inkscape:collect="always"
       xlink:href="#linearGradient889"
       id="linearGradient891"
       x1="38.821194"
       y1="-46.550701"
       x2="116.76774"
       y2="-46.550701"
       gradientUnits="userSpaceOnUse" />
  </defs>
  <sodipodi:namedview
     id="base"
     pagecolor="#ffffff"
     bordercolor="#666666"
     borderopacity="1.0"
     inkscape:pageopacity="0.0"
     inkscape:pageshadow="2"
     inkscape:zoom="1.0654565"
     inkscape:cx="546.50501"
     inkscape:cy="-27.394534"
     inkscape:document-units="mm"
     inkscape:current-layer="g990"
     inkscape:document-rotation="0"
     showgrid="false"
     showguides="false"
     inkscape:guide-bbox="true"
     inkscape:snap-center="true"
     inkscape:snap-bbox="true"
     inkscape:snap-global="true"
     inkscape:window-width="1920"
     inkscape:window-height="1025"
     inkscape:window-x="0"
     inkscape:window-y="0"
     inkscape:window-maximized="1"
     fit-margin-top="0"
     fit-margin-left="0"
     fit-margin-right="0"
     fit-margin-bottom="0"
     inkscape:lockguides="false">
    <inkscape:grid
       type="xygrid"
       id="grid10"
       originx="69.408651"
       originy="0.17931241" />
    <sodipodi:guide
       position="147.14059,130.92141"
       orientation="1,0"
       id="guide935"
       inkscape:locked="false" />
    <sodipodi:guide
       position="69.407103,-157.1587"
       orientation="0,-1"
       id="guide947"
       inkscape:locked="false" />
    <sodipodi:guide
       position="155.42891,20.534484"
       orientation="0,-1"
       id="guide891" />
  </sodipodi:namedview>
  <metadata
     id="metadata5">
    <rdf:RDF>
      <cc:Work
         rdf:about="">
        <dc:format>image/svg+xml</dc:format>
        <dc:type
           rdf:resource="http://purl.org/dc/dcmitype/StillImage" />
        <dc:title></dc:title>
      </cc:Work>
    </rdf:RDF>
  </metadata>
  <g
     inkscape:label="Layer 1 copy"
     inkscape:groupmode="layer"
     id="g990"
     style="display:inline"
     transform="translate(69.408654,0.17929451)">
    <g
       id="g889"
       transform="matrix(0.46956255,0,0,0.46956255,-87.637633,42.213656)">
      <path
         id="path974"
         style="fill:#303030;fill-opacity:1;stroke:none;stroke-width:0.261814;stroke-opacity:1"
         d="m 67.187358,-81.636382 a 36.654065,36.654065 0 0 0 -14.474051,8.356596 10.615804,10.615804 0 0 1 2.511992,2.213818 33.322627,33.322627 0 0 1 12.623001,-7.287927 10.615804,10.615804 0 0 1 -0.660942,-3.282487 z m 21.214728,5.17e-4 a 10.615804,10.615804 0 0 1 -0.661459,3.28197 33.322627,33.322627 0 0 1 12.623003,7.287927 10.615805,10.615805 0 0 1 2.51199,-2.213302 36.654065,36.654065 0 0 0 -14.473534,-8.356595 z m -46.295883,26.728083 a 36.654065,36.654065 0 0 0 -0.965833,8.357113 36.654065,36.654065 0 0 0 0.965316,8.356597 10.615804,10.615804 0 0 1 3.172933,-1.06867 33.322627,33.322627 0 0 1 -0.806669,-7.287927 33.322627,33.322627 0 0 1 0.807186,-7.287927 10.615804,10.615804 0 0 1 -3.172933,-1.069186 z m 71.377037,5.18e-4 a 10.615805,10.615805 0 0 1 -3.17345,1.068668 33.322627,33.322627 0 0 1 0.80719,7.287927 33.322627,33.322627 0 0 1 -0.80667,7.287927 10.615805,10.615805 0 0 1 3.17293,1.069186 36.654065,36.654065 0 0 0 0.96532,-8.357113 36.654065,36.654065 0 0 0 -0.96532,-8.356595 z M 55.225299,-22.03537 a 10.615804,10.615804 0 0 1 -2.512508,2.213303 36.654065,36.654065 0 0 0 14.537614,8.375714 10.556358,10.556358 0 0 1 0.687295,-3.2737 33.322627,33.322627 0 0 1 -12.712401,-7.315317 z m 45.138331,5.16e-4 a 33.322627,33.322627 0 0 1 -12.711887,7.315317 10.556358,10.556358 0 0 1 0.686779,3.273184 36.654065,36.654065 0 0 0 14.537098,-8.375198 10.615805,10.615805 0 0 1 -2.51199,-2.213303 z" />
      <path
         id="path976"
         style="fill:url(#linearGradient891);fill-opacity:1;stroke:#000000;stroke-width:0.5;stroke-miterlimit:4;stroke-dasharray:none;stroke-opacity:1"
         d="m 77.731935,-90.031735 a 7.967987,7.967987 0 0 0 -7.905462,7.967989 7.967987,7.967987 0 0 0 7.967991,7.967989 7.967987,7.967987 0 0 0 7.967988,-7.967989 7.967987,7.967987 0 0 0 -7.967988,-7.967989 7.967987,7.967987 0 0 0 -0.06253,0 z m -30.734041,17.756539 a 7.967987,7.967987 0 0 0 -6.859013,3.983736 7.967987,7.967987 0 0 0 2.916618,10.884606 7.967987,7.967987 0 0 0 10.88409,-2.916618 7.967987,7.967987 0 0 0 -2.916101,-10.884089 7.967987,7.967987 0 0 0 -4.025594,-1.067635 z m 61.531126,0 a 7.967987,7.967987 0 0 0 -3.96358,1.067635 7.967987,7.967987 0 0 0 -2.9161,10.884089 7.967987,7.967987 0 0 0 10.88409,2.916618 7.967987,7.967987 0 0 0 2.91662,-10.884606 7.967987,7.967987 0 0 0 -6.92103,-3.983736 z M 47.018564,-36.76212 a 7.967987,7.967987 0 0 0 -3.963582,1.067636 7.967987,7.967987 0 0 0 -2.916101,10.88409 7.967987,7.967987 0 0 0 10.88409,2.916619 7.967987,7.967987 0 0 0 2.916618,-10.884609 7.967987,7.967987 0 0 0 -6.921025,-3.983736 z m 61.489266,0 a 7.967987,7.967987 0 0 0 -6.85849,3.983736 7.967987,7.967987 0 0 0 2.9161,10.884609 7.967987,7.967987 0 0 0 10.88461,-2.916619 7.967987,7.967987 0 0 0 -2.91662,-10.88409 7.967987,7.967987 0 0 0 -4.0256,-1.067636 z m -30.713366,17.756539 a 7.967987,7.967987 0 0 0 -7.967991,7.96799 7.967987,7.967987 0 0 0 7.967991,7.9679883 7.967987,7.967987 0 0 0 7.967988,-7.9679883 7.967987,7.967987 0 0 0 -7.967988,-7.96799 z" />
      <path
         id="path978"
         style="fill:#303030;fill-opacity:1;stroke:none;stroke-width:0.25417;stroke-opacity:1"
         inkscape:transform-center-y="-1.4362199e-06"
         d="M 66.471611,-66.16294 55.148272,-46.5507 66.471611,-26.938461 H 89.117257 L 100.4406,-46.5507 89.117257,-66.16294 Z m 11.260295,11.644249 a 7.967987,7.967987 0 0 1 0.06253,0 7.967987,7.967987 0 0 1 7.967988,7.967991 7.967987,7.967987 0 0 1 -7.967988,7.967988 7.967987,7.967987 0 0 1 -7.96799,-7.967988 7.967987,7.967987 0 0 1 7.90546,-7.967991 z" />
      <path
         sodipodi:type="star"
         style="fill:none;fill-opacity:1;stroke:#c1f835;stroke-width:0.8;stroke-miterlimit:4;stroke-dasharray:none;stroke-opacity:1"
         id="path980"
         sodipodi:sides="6"
         sodipodi:cx="77.794434"
         sodipodi:cy="-46.55069"
         sodipodi:r1="18.646992"
         sodipodi:r2="16.148769"
         sodipodi:arg1="2.0943951"
         sodipodi:arg2="2.6179939"
         inkscape:flatsided="true"
         inkscape:rounded="0"
         inkscape:randomized="0"
         d="m 68.470938,-30.401921 -9.323496,-16.148769 9.323496,-16.148768 18.646991,0 9.323496,16.148768 -9.323496,16.148769 z"
         inkscape:transform-center-y="-1.1825931e-06" />
    </g>
    <path
       id="rect1065"
       style="fill:#303030;fill-opacity:1;stroke:none;stroke-width:3.87719;stroke-miterlimit:4;stroke-dasharray:none;stroke-opacity:1"
       d="m 381.30469,370.94141 c -4.46861,0 -8.35362,0.21433 -11.6543,0.64257 -3.30067,0.42825 -6.13093,1.07126 -8.49219,1.92774 -2.33586,0.82354 -4.25395,1.8615 -5.75195,3.11328 -1.498,1.25178 -2.67776,2.68469 -3.54102,4.29883 -0.86325,1.5812 -1.46094,3.35944 -1.79101,5.33594 -0.30468,1.97649 -0.45703,4.11791 -0.45703,6.42382 0,2.20709 0.10157,4.26517 0.30469,6.17579 0.20304,1.8776 0.63478,3.59041 1.29492,5.13867 0.68552,1.54825 1.67582,2.9335 2.9707,4.15234 1.29488,1.1859 3.02155,2.19013 5.17969,3.01367 2.15813,0.7906 4.82432,1.39989 7.99804,1.82813 3.19912,0.42824 7.03335,0.64258 11.50196,0.64258 h 10.05469 c 4.06229,0 7.34968,0.23022 9.86328,0.6914 2.51359,0.42825 4.45512,1.16853 5.82617,2.22266 1.39644,1.05413 2.32423,2.47115 2.78125,4.25 0.4824,1.77885 0.72265,4.00165 0.72265,6.66992 0,2.66828 -0.34181,4.94264 -1.02734,6.82031 -0.68553,1.84473 -1.86724,3.34314 -3.54297,4.4961 -1.67572,1.15295 -3.92196,1.99246 -6.74023,2.51953 -2.81827,0.52707 -6.35951,0.79101 -10.625,0.79101 h -9.75 c -3.65614,0 -6.7286,-0.0992 -9.2168,-0.29687 -2.46281,-0.23059 -4.4552,-0.75654 -5.97851,-1.58008 -1.52339,-0.85648 -2.61526,-2.12466 -3.2754,-3.80469 -0.66013,-1.68002 -0.99023,-4.004 -0.99023,-6.96875 h -7.3125 c 0,2.3718 0.15235,4.54694 0.45703,6.52344 0.30468,1.94356 0.83791,3.69003 1.59961,5.23828 0.78708,1.51532 1.82817,2.849 3.12305,4.00195 1.29488,1.12002 2.9317,2.05875 4.91211,2.81641 1.9804,0.72472 4.34188,1.2685 7.08398,1.63086 2.7421,0.36236 5.94152,0.54297 9.59766,0.54297 h 9.75 c 4.06237,0 7.60361,-0.24611 10.625,-0.74024 3.04678,-0.46118 5.64851,-1.1538 7.80664,-2.07617 2.15813,-0.92236 3.93559,-2.04171 5.33203,-3.35937 1.39644,-1.31767 2.50198,-2.81802 3.31445,-4.49805 0.81248,-1.68002 1.37111,-3.52376 1.67578,-5.5332 0.33007,-2.04238 0.49414,-4.21753 0.49414,-6.52344 0,-2.30591 -0.10157,-4.44545 -0.30468,-6.42187 -0.17773,-1.9765 -0.58401,-3.7567 -1.21875,-5.3379 -0.63475,-1.61414 -1.5352,-3.04704 -2.70313,-4.29882 -1.16793,-1.25179 -2.74225,-2.28982 -4.72265,-3.11328 -1.95502,-0.85649 -4.36729,-1.49754 -7.23633,-1.92579 -2.86905,-0.42824 -6.30879,-0.64257 -10.32031,-0.64257 h -10.05469 c -3.2499,0 -6.05672,-0.0833 -8.41797,-0.24805 -2.33587,-0.19765 -4.31451,-0.50926 -5.93945,-0.9375 -1.62495,-0.42824 -2.93363,-0.97203 -3.92383,-1.63086 -0.99021,-0.65884 -1.76369,-1.46657 -2.32227,-2.42188 -0.5332,-0.98824 -0.88869,-2.12543 -1.0664,-3.41015 -0.17772,-1.28473 -0.26758,-2.74941 -0.26758,-4.39649 0,-2.66827 0.35549,-4.89302 1.0664,-6.67187 0.71092,-1.77885 1.98053,-3.19392 3.8086,-4.24805 1.82807,-1.05413 4.3165,-1.79636 7.46484,-2.22461 3.14834,-0.46118 7.16031,-0.6914 12.03516,-0.6914 h 7.3125 c 3.65613,0 6.72664,0.1151 9.21484,0.3457 2.4882,0.19765 4.49419,0.72555 6.01758,1.58203 1.52339,0.82354 2.61525,2.07387 3.27539,3.75391 0.66014,1.68002 0.99023,4.004 0.99023,6.96875 h 7.3125 c 0,-2.3718 -0.15235,-4.53106 -0.45703,-6.47461 -0.30467,-1.94356 -0.84963,-3.67219 -1.63672,-5.1875 -0.76169,-1.54826 -1.80277,-2.86605 -3.12304,-3.95313 -1.29488,-1.12001 -2.93373,-2.04286 -4.91406,-2.76758 -1.98041,-0.75765 -4.34189,-1.29949 -7.08399,-1.6289 -2.7421,-0.36236 -5.93957,-0.54492 -9.5957,-0.54492 z M 0,372.52344 v 75.89648 h 7.3125 v -75.89648 z m 545.83008,0 v 75.89648 h 7.3125 v -27.27539 h 2.4375 l 28.0293,27.27539 h 10.96874 l -32.29492,-30.4375 31.07618,-26.48437 h -10.96876 l -26.81054,22.53125 h -2.4375 v -41.50586 z m -242.02735,3.4082 v 15.56641 h -9.02734 v 7.80664 h 9.02734 v 28.56054 c 0,3.953 0.30471,7.24748 0.91407,9.88282 0.60935,2.63533 1.61137,4.74302 3.00781,6.32422 1.39644,1.58119 3.22468,2.70054 5.48437,3.35937 2.2597,0.65883 5.05285,0.98828 8.37891,0.98828 3.42763,0 6.30867,-0.41083 8.64453,-1.23437 2.33586,-0.82354 4.21489,-2.20684 5.63672,-4.15039 1.44722,-1.94356 2.47471,-4.52954 3.08398,-7.75782 0.60936,-3.26122 0.91407,-7.31382 0.91407,-12.15625 h -6.0918 c 0,2.86593 -0.0899,5.28718 -0.26758,7.26368 -0.17773,1.94355 -0.46876,3.55707 -0.875,4.84179 -0.38084,1.28472 -0.88877,2.29091 -1.52343,3.01563 -0.63475,0.69177 -1.41019,1.21772 -2.32422,1.58008 -0.88865,0.32941 -1.94145,0.52786 -3.16016,0.59375 -1.19332,0.0659 -2.55279,0.0976 -4.07617,0.0976 -1.92963,0 -3.56645,-0.0655 -4.91211,-0.19726 -1.32027,-0.13177 -2.38675,-0.59222 -3.19922,-1.38282 -0.81247,-0.7906 -1.41017,-2.04289 -1.79102,-3.75586 -0.35546,-1.71296 -0.5332,-4.1501 -0.5332,-7.3125 v -28.56054 h 27.53516 V 391.498 h -27.53516 v -15.56641 z m 358.30079,0 v 15.56641 h -9.02735 v 7.80664 h 9.02735 v 28.56054 c 0,3.953 0.30467,7.24748 0.91406,9.88282 0.60933,2.63533 1.61135,4.74302 3.00781,6.32422 1.39641,1.58119 3.22467,2.70054 5.48438,3.35937 2.2597,0.65883 5.05284,0.98828 8.3789,0.98828 3.42763,0 6.30866,-0.41083 8.64453,-1.23437 2.33585,-0.82354 4.21489,-2.20684 5.63672,-4.15039 1.44721,-1.94356 2.47658,-4.52954 3.08594,-7.75782 0.60933,-3.26122 0.91406,-7.31382 0.91406,-12.15625 h -6.09375 c 0,2.86593 -0.0897,5.28718 -0.26758,7.26368 -0.17773,1.94355 -0.46875,3.55707 -0.875,4.84179 -0.38082,1.28472 -0.8887,2.29091 -1.52343,3.01563 -0.63476,0.69177 -1.41018,1.21772 -2.32422,1.58008 -0.88865,0.32941 -1.94146,0.52786 -3.16016,0.59375 -1.19332,0.0659 -2.55277,0.0976 -4.07617,0.0976 -1.9296,0 -3.56645,-0.0655 -4.91211,-0.19726 -1.32029,-0.13177 -2.38675,-0.59222 -3.19922,-1.38282 -0.81247,-0.7906 -1.40821,-2.04289 -1.78906,-3.75586 -0.35545,-1.71296 -0.5332,-4.1501 -0.5332,-7.3125 v -28.56054 h 27.53515 V 391.498 h -27.53515 v -15.56641 z m -398.97657,13.93555 c -3.65613,0 -6.85555,0.19649 -9.59765,0.59179 -2.7421,0.3953 -5.1153,1.0542 -7.1211,1.97657 -1.9804,0.92237 -3.6309,2.14093 -4.95117,3.65625 -1.29488,1.48237 -2.33596,3.34395 -3.12305,5.58398 -0.76169,2.24003 -1.29501,4.87562 -1.5996,7.90625 -0.30468,3.03063 -0.45704,6.52357 -0.45704,10.47656 0,3.82123 0.15236,7.21299 0.45704,10.17774 0.30459,2.93181 0.83791,5.48601 1.5996,7.66015 0.78709,2.17415 1.82817,4.00201 3.12305,5.48438 1.32027,1.48237 2.97077,2.68505 4.95117,3.60742 2.0058,0.88942 4.379,1.53048 7.1211,1.92578 2.7421,0.3953 5.94152,0.59375 9.59765,0.59375 4.87485,0 8.88682,-0.39494 12.03516,-1.18554 3.14834,-0.7906 5.63678,-1.99328 7.46484,-3.60743 1.82807,-1.64708 3.09768,-3.73888 3.8086,-6.27539 0.71091,-2.5365 1.0664,-5.53527 1.0664,-8.99414 h -7.3125 c 0,1.31767 -0.0254,2.55407 -0.0762,3.70703 -0.0508,1.12002 -0.2422,2.15807 -0.57226,3.11328 -0.30468,0.92237 -0.79885,1.74599 -1.48438,2.47071 -0.68553,0.72471 -1.6641,1.334 -2.93359,1.82812 -1.26949,0.49413 -2.88092,0.8732 -4.83594,1.13672 -1.92963,0.26353 -4.3165,0.39453 -7.16016,0.39453 -3.24989,0 -5.99226,-0.14883 -8.22656,-0.44531 -2.20891,-0.29648 -4.03715,-0.79065 -5.48437,-1.48242 -1.44722,-0.69178 -2.56448,-1.59678 -3.35157,-2.7168 -0.78708,-1.12002 -1.35743,-2.48742 -1.71289,-4.10156 -0.35545,-1.64708 -0.57226,-3.55827 -0.64844,-5.73242 -0.0507,-2.2071 -0.0762,-4.72562 -0.0762,-7.5586 0,-2.89886 0.0255,-5.45306 0.0762,-7.66015 0.0762,-2.24004 0.29299,-4.183 0.64844,-5.83008 0.35546,-1.64708 0.92581,-3.03037 1.71289,-4.15039 0.78709,-1.15296 1.90435,-2.05992 3.35157,-2.71875 1.44722,-0.69178 3.27546,-1.18595 5.48437,-1.48242 2.2343,-0.29648 4.97667,-0.44336 8.22656,-0.44336 2.84366,0 5.23053,0.11512 7.16016,0.3457 1.95502,0.23059 3.56645,0.57593 4.83594,1.03711 1.26949,0.46118 2.24806,1.03869 2.93359,1.73047 0.68553,0.65883 1.1797,1.415 1.48438,2.27148 0.33005,0.85649 0.52146,1.81306 0.57226,2.86719 0.0508,1.05413 0.0762,2.18936 0.0762,3.4082 h 7.3125 c 0,-3.39298 -0.35549,-6.30841 -1.0664,-8.74609 -0.71092,-2.47062 -1.98053,-4.49497 -3.8086,-6.07617 -1.82806,-1.61414 -4.3165,-2.80094 -7.46484,-3.5586 -3.14834,-0.79059 -7.16031,-1.18554 -12.03516,-1.18554 z m 248.61719,0 c -3.65611,0 -6.85556,0.19649 -9.59766,0.59179 -2.74209,0.3953 -5.11529,1.0542 -7.12109,1.97657 -1.9804,0.92237 -3.63088,2.14093 -4.95117,3.65625 -1.29487,1.48237 -2.33595,3.34395 -3.12305,5.58398 -0.76167,2.24003 -1.2949,4.87562 -1.59961,7.90625 -0.30468,3.03063 -0.45703,6.52357 -0.45703,10.47656 0,3.82123 0.15235,7.21299 0.45703,10.17774 0.30471,2.93181 0.83794,5.48601 1.59961,7.66015 0.7871,2.17415 1.82818,4.00201 3.12305,5.48438 1.32029,1.48237 2.97077,2.68506 4.95117,3.60742 2.0058,0.88942 4.379,1.53048 7.12109,1.92578 2.7421,0.3953 5.94155,0.59375 9.59766,0.59375 4.87486,0 8.88681,-0.39494 12.03516,-1.18554 3.14834,-0.7906 5.63681,-1.99328 7.46484,-3.60743 1.82808,-1.64708 3.09767,-3.73888 3.80859,-6.27539 0.71091,-2.5365 1.06641,-5.53527 1.06641,-8.99414 h -7.3125 c 0,1.31767 -0.0253,2.55407 -0.0762,3.70703 -0.0507,1.12002 -0.24219,2.15803 -0.57227,3.11328 -0.30468,0.92237 -0.79887,1.74599 -1.48437,2.47071 -0.68553,0.72471 -1.66408,1.334 -2.9336,1.82812 -1.26949,0.49413 -2.88093,0.8732 -4.83593,1.13672 -1.92963,0.26353 -4.31649,0.39453 -7.16016,0.39453 -3.24989,0 -5.99226,-0.14883 -8.22656,-0.44531 -2.20891,-0.29648 -4.03715,-0.79065 -5.48438,-1.48242 -1.4472,-0.69178 -2.56446,-1.59678 -3.35156,-2.7168 -0.78707,-1.12002 -1.35744,-2.48742 -1.71289,-4.10156 -0.35555,-1.64708 -0.57234,-3.55827 -0.64844,-5.73242 -0.0509,-2.2071 -0.0762,-4.72562 -0.0762,-7.5586 0,-2.89886 0.0253,-5.45306 0.0762,-7.66015 0.0762,-2.24004 0.29296,-4.183 0.64844,-5.83008 0.35545,-1.64708 0.92582,-3.03037 1.71289,-4.15039 0.7871,-1.15296 1.90436,-2.05992 3.35156,-2.71875 1.44723,-0.69178 3.27547,-1.18595 5.48438,-1.48242 2.2343,-0.29648 4.97667,-0.44336 8.22656,-0.44336 2.84367,0 5.23053,0.11512 7.16016,0.3457 1.955,0.23059 3.56644,0.57593 4.83593,1.03711 1.26952,0.46118 2.24807,1.03869 2.9336,1.73047 0.6855,0.65883 1.17969,1.415 1.48437,2.27148 0.33018,0.85649 0.52162,1.81306 0.57227,2.86719 0.0509,1.05413 0.0762,2.18936 0.0762,3.4082 h 7.3125 c 0,-3.39298 -0.3555,-6.30841 -1.06641,-8.74609 -0.71092,-2.47062 -1.98051,-4.49497 -3.80859,-6.07617 -1.82803,-1.61414 -4.3165,-2.80094 -7.46484,-3.5586 -3.14835,-0.79059 -7.1603,-1.18554 -12.03516,-1.18554 z m -465.433593,0.0488 c -2.792881,0 -5.205142,0.24806 -7.236328,0.74218 -2.031186,0.49413 -3.769581,1.1193 -5.216797,1.87696 -1.421831,0.75766 -2.589873,1.58128 -3.503906,2.4707 -0.888645,0.88943 -1.59963,1.72893 -2.132813,2.51953 -0.507805,0.75766 -0.863294,1.41655 -1.066406,1.97656 -0.203112,0.56001 -0.316399,0.88946 -0.341797,0.98828 v -8.99218 H 19.5 v 56.92187 h 7.3125 v -35.2793 c 0,-2.30579 0.24025,-4.39771 0.722656,-6.27539 0.507795,-1.87767 1.396523,-3.4753 2.666016,-4.79296 1.26949,-1.35061 3.007882,-2.38857 5.216797,-3.11329 2.208912,-0.75765 5.027452,-1.13671 8.455078,-1.13671 3.122947,0 5.636792,0.32944 7.541015,0.98828 1.929626,0.62589 3.416049,1.66385 4.457032,3.11328 1.066372,1.44943 1.763682,3.35867 2.09375,5.73047 0.355457,2.33885 0.533203,5.2225 0.533203,8.64843 v 32.11719 h 7.3125 v -35.2793 c 0,-2.30579 0.24025,-4.39771 0.722656,-6.27539 0.507797,-1.87767 1.396525,-3.4753 2.666016,-4.79296 1.26949,-1.35061 3.009836,-2.38857 5.21875,-3.11329 2.208914,-0.75765 5.027453,-1.13671 8.455078,-1.13671 3.122947,0 5.636791,0.32944 7.541015,0.98828 1.929626,0.62589 3.414097,1.66385 4.455079,3.11328 1.066372,1.44943 1.763682,3.35867 2.09375,5.73047 0.355457,2.33885 0.533203,5.2225 0.533203,8.64843 v 32.11719 h 7.312496 V 416.3027 c 0,-2.83298 -0.0762,-5.45268 -0.22851,-7.85742 -0.15234,-2.43768 -0.46877,-4.62871 -0.95117,-6.57226 -0.45702,-1.9765 -1.13101,-3.70513 -2.01953,-5.1875 -0.86326,-1.48238 -2.01763,-2.71683 -3.464849,-3.70508 -1.447219,-1.02119 -3.224677,-1.77931 -5.332031,-2.27344 -2.081965,-0.52706 -4.582125,-0.79101 -7.501953,-0.79101 -3.554574,0 -6.564532,0.37906 -9.027344,1.13671 -2.462812,0.72472 -4.519584,1.62973 -6.169922,2.7168 -1.624948,1.08707 -2.894572,2.22426 -3.808593,3.41016 -0.914034,1.1859 -1.585952,2.22386 -2.017579,3.11328 -0.533186,-1.68003 -1.257841,-3.16254 -2.171875,-4.44727 -0.888643,-1.31766 -2.054734,-2.40523 -3.501953,-3.26172 -1.421829,-0.88942 -3.148502,-1.54832 -5.179687,-1.97656 -2.005795,-0.46118 -4.380948,-0.6914 -7.123047,-0.6914 z m 95.060543,0 c -3.4784,0 -6.38679,0.23022 -8.72265,0.6914 -2.33587,0.46118 -4.252,1.0387 -5.75,1.73047 -1.47261,0.69178 -2.60355,1.4499 -3.39063,2.27344 -0.7617,0.7906 -1.30665,1.51499 -1.63672,2.17383 v -5.28711 h -7.3125 v 75.89648 h 7.3125 v -25.2988 c 0.33007,0.75766 0.87502,1.56539 1.63672,2.42188 0.78708,0.85648 1.91802,1.66226 3.39063,2.41992 1.498,0.72471 3.41413,1.33411 5.75,1.82812 2.33586,0.49413 5.24425,0.74219 8.72265,0.74219 4.87485,0 9.01183,-0.46044 12.41407,-1.38281 3.40223,-0.92236 6.16999,-2.50411 8.30273,-4.74414 2.13275,-2.24003 3.68167,-5.25468 4.64649,-9.04297 0.9647,-3.78829 1.44726,-8.54745 1.44726,-14.2793 0,-5.83067 -0.48256,-10.67317 -1.44726,-14.52734 -0.96482,-3.88712 -2.51374,-6.9851 -4.64649,-9.29102 -2.13274,-2.30591 -4.9005,-3.93531 -8.30273,-4.89062 -3.40224,-0.95531 -7.53922,-1.43359 -12.41407,-1.43359 z m 62.03907,0 c -4.57017,0 -8.41612,0.29572 -11.53907,0.88867 -3.12294,0.59294 -5.65045,1.54952 -7.58007,2.86719 -1.90424,1.28462 -3.27347,2.96373 -4.11133,5.03906 -0.81248,2.07532 -1.21875,4.61168 -1.21875,7.60937 h 7.31054 c 0,-1.77884 0.2676,-3.21175 0.80079,-4.29883 0.53318,-1.12001 1.4473,-1.99129 2.74218,-2.61718 1.29489,-0.62587 3.04695,-1.03866 5.25586,-1.23633 2.20891,-0.23058 4.98839,-0.3457 8.33985,-0.3457 2.15813,0 4.07622,0.0814 5.75195,0.24609 1.67573,0.13177 3.1348,0.46122 4.37891,0.98828 1.26948,0.52707 2.33596,1.31891 3.19921,2.37305 0.86326,1.02119 1.56057,2.40448 2.09375,4.15039 0.55858,1.74591 0.95323,3.91909 1.18164,6.52148 0.2539,2.60239 0.38086,5.74999 0.38086,9.43946 -0.33006,-0.56001 -0.87697,-1.16929 -1.63867,-1.82813 -0.76169,-0.65883 -1.89067,-1.27007 -3.38867,-1.83008 -1.47261,-0.59295 -3.37703,-1.06928 -5.71289,-1.43164 -2.33586,-0.3953 -5.2423,-0.59375 -8.7207,-0.59375 -2.43743,0 -4.7364,0.0496 -6.89453,0.14844 -2.15814,0.0988 -4.15045,0.34689 -5.97852,0.74219 -1.80268,0.3953 -3.41411,0.97085 -4.83594,1.72851 -1.42183,0.75766 -2.64066,1.81151 -3.65625,3.16211 -0.9902,1.35061 -1.75197,3.03158 -2.28515,5.04102 -0.5078,1.9765 -0.76172,4.39775 -0.76172,7.26367 0,2.73415 0.46878,5.08795 1.4082,7.06445 0.96481,1.9765 2.47663,3.60786 4.5332,4.89258 2.05658,1.25178 4.70909,2.17463 7.95899,2.76758 3.24989,0.62589 7.17202,0.93945 11.76758,0.93945 3.45301,0 6.23444,-0.26395 8.34179,-0.79101 2.13275,-0.49413 3.83208,-1.18675 5.10157,-2.07618 1.26949,-0.92236 2.28518,-1.97621 3.04687,-3.16211 1.06637,-1.5811 1.63867,-2.56954 1.71484,-2.96484 v 7.80664 h 7.3125 v -26.8789 c 0,-6.22597 -0.43166,-11.36615 -1.29492,-15.41797 -0.83786,-4.08477 -2.22272,-7.32964 -4.15234,-9.73438 -1.90424,-2.40474 -4.4044,-4.08375 -7.50195,-5.03906 -3.09756,-0.95531 -6.88101,-1.43359 -11.34961,-1.43359 z m 247.36132,0 c -4.87485,0 -9.01379,0.46044 -12.41601,1.38281 -3.40224,0.88942 -6.16999,2.45528 -8.30274,4.69531 -2.13274,2.24003 -3.68167,5.27057 -4.64648,9.0918 -0.96483,3.82123 -1.44727,8.64784 -1.44727,14.47851 0,5.83067 0.48244,10.67317 1.44727,14.52735 0.96481,3.85417 2.51374,6.91648 4.64648,9.18945 2.13275,2.27298 4.9005,3.88844 8.30274,4.84375 3.40222,0.92237 7.54116,1.38281 12.41601,1.38281 4.87484,0 9.01183,-0.46044 12.41407,-1.38281 3.40223,-0.95531 6.16999,-2.57077 8.30273,-4.84375 2.13274,-2.27297 3.68165,-5.33528 4.64649,-9.18945 0.96481,-3.85418 1.44726,-8.69668 1.44726,-14.52735 0,-5.83067 -0.48245,-10.65728 -1.44726,-14.47851 -0.96484,-3.82123 -2.51375,-6.85177 -4.64649,-9.0918 -2.13274,-2.24003 -4.9005,-3.80589 -8.30273,-4.69531 -3.40224,-0.92237 -7.53923,-1.38281 -12.41407,-1.38281 z m 170.61914,0 c -4.8748,0 -9.01376,0.47828 -12.41601,1.43359 -3.40221,0.95531 -6.17,2.63432 -8.30273,5.03906 -2.13274,2.40474 -3.68165,5.64961 -4.64649,9.73438 -0.96479,4.05182 -1.44727,9.192 -1.44727,15.41797 10e-6,5.43537 0.48248,9.94842 1.44727,13.53906 0.96484,3.59064 2.51375,6.45645 4.64649,8.59765 2.13273,2.14121 4.90052,3.6555 8.30273,4.54493 3.40225,0.85648 7.54121,1.28515 12.41601,1.28515 4.57018,0 8.40441,-0.31356 11.50196,-0.93945 3.12295,-0.59295 5.63679,-1.54757 7.54101,-2.86524 1.90423,-1.35057 3.26172,-3.09707 4.07422,-5.23828 0.83785,-2.17414 1.25586,-4.79192 1.25586,-7.85546 h -7.31055 c 10e-6,1.97646 -0.26759,3.59001 -0.80078,4.84179 -0.50779,1.21884 -1.40826,2.17346 -2.70312,2.86524 -1.29492,0.69178 -3.04695,1.17006 -5.25586,1.43359 -2.18353,0.23058 -4.9513,0.3457 -8.30274,0.3457 -3.6561,0 -6.72858,-0.16472 -9.21679,-0.49414 -2.48819,-0.36236 -4.4942,-1.18598 -6.01758,-2.4707 -1.52338,-1.28473 -2.61526,-3.31103 -3.27539,-6.07813 -0.66016,-2.80004 -0.99024,-6.37436 -0.99024,-10.72265 h 43.26368 l 0.60937,-3.16211 c 0,-2.93181 -0.12697,-5.71428 -0.38086,-8.34961 -0.22851,-2.63533 -0.6719,-4.92558 -1.33203,-6.86914 -0.63476,-1.9765 -1.52346,-3.85396 -2.66601,-5.63281 -1.11716,-1.77885 -2.58992,-3.2951 -4.41797,-4.54688 -1.80266,-1.25178 -3.9864,-2.2064 -6.55078,-2.86523 -2.53899,-0.65884 -5.54699,-0.98828 -9.0254,-0.98828 z m 113.33985,0 c -4.87484,0 -9.01376,0.27983 -12.41602,0.83984 -3.40223,0.56001 -6.16999,1.48286 -8.30273,2.76758 -2.13274,1.25178 -3.68165,2.89902 -4.64649,4.9414 -0.96478,2.00944 -1.44726,4.49619 -1.44726,7.46094 0,2.17415 0.15237,4.20045 0.45703,6.07813 0.30468,1.84473 0.82617,3.40863 1.5625,4.69336 0.73628,1.25178 1.72658,2.25601 2.9707,3.01367 1.2695,0.75766 2.84383,1.35105 4.72266,1.77929 1.90425,0.3953 4.16414,0.65925 6.7793,0.79102 2.61513,0.13175 5.64853,0.19727 9.10156,0.19727 2.84366,0 5.26767,0.0655 7.27344,0.19726 2.00579,0.0988 3.68168,0.29727 5.02734,0.59375 1.37106,0.26353 2.45121,0.60886 3.23828,1.03711 0.7871,0.42824 1.38284,1.07125 1.78906,1.92774 0.40625,0.82353 0.66015,1.66304 0.76172,2.51953 0.12699,0.82354 0.19141,1.78011 0.19141,2.86718 0,1.1859 -0.0644,2.27152 -0.19141,3.25977 -0.10154,0.95531 -0.36718,1.82854 -0.79883,2.61914 -0.43164,0.7906 -1.06645,1.46539 -1.90429,2.02539 -0.83787,0.56001 -1.98051,1.03829 -3.42774,1.43359 -1.4472,0.39531 -3.25009,0.69298 -5.4082,0.89063 -2.13276,0.16471 -4.72275,0.24609 -7.76953,0.24609 -3.35146,0 -6.13091,-0.11512 -8.33985,-0.3457 -2.18349,-0.26353 -3.92386,-0.74181 -5.21874,-1.43359 -1.29487,-0.69178 -2.209,-1.6464 -2.74219,-2.86524 -0.50779,-1.25178 -0.76172,-2.86531 -0.76172,-4.84179 h -7.3125 c 0,2.99767 0.40628,5.53405 1.21875,7.60937 0.83784,2.07532 2.20903,3.77023 4.11328,5.08789 1.90423,1.28473 4.40636,2.22541 7.50391,2.81836 3.12297,0.59295 6.9689,0.88867 11.53906,0.88867 3.65614,0 6.85557,-0.14884 9.59765,-0.44531 2.7675,-0.26353 5.1407,-0.67436 7.1211,-1.23438 1.98042,-0.59294 3.6192,-1.35107 4.91406,-2.27343 1.32027,-0.95531 2.36137,-2.07465 3.12305,-3.35938 0.76172,-1.31766 1.29495,-2.81802 1.59961,-4.49805 0.30468,-1.71295 0.45703,-3.64005 0.45703,-5.78124 0,-2.14121 -0.15235,-4.01868 -0.45703,-5.63282 -0.30466,-1.64708 -0.83789,-3.06214 -1.59961,-4.24804 -0.73628,-1.21884 -1.72659,-2.34014 -2.97071,-3.36133 -1.24408,-1.02119 -2.81842,-1.77932 -4.72265,-2.27344 -1.90425,-0.49413 -4.16417,-0.83946 -6.7793,-1.03711 -2.58976,-0.19767 -5.61142,-0.29687 -9.06445,-0.29687 h -7.27344 c -2.00577,-0.033 -3.69535,-0.13021 -5.0664,-0.29493 -1.34567,-0.19767 -2.41212,-0.47945 -3.19922,-0.84179 -0.78708,-0.36236 -1.38284,-0.8883 -1.78907,-1.58008 -0.40625,-0.69178 -0.67381,-1.56501 -0.80078,-2.61914 -0.10154,-1.08708 -0.15234,-2.19053 -0.15234,-3.31055 0,-1.91061 0.3301,-3.40902 0.99023,-4.49609 0.66014,-1.08708 1.75199,-1.89481 3.27539,-2.42188 1.52338,-0.52707 3.52937,-0.85651 6.01758,-0.98828 2.48819,-0.13175 5.56066,-0.19726 9.2168,-0.19726 3.35143,0 6.11917,0.131 8.30273,0.39453 2.20891,0.23057 3.96097,0.67513 5.25586,1.33398 1.29487,0.62589 2.19534,1.49913 2.70313,2.61914 0.53319,1.12002 0.80078,2.57076 0.80078,4.34961 h 7.3125 c 0,-2.86592 -0.36917,-5.33678 -1.10547,-7.41211 -0.7363,-2.07532 -2.03131,-3.78806 -3.88477,-5.13867 -1.82808,-1.38355 -4.31652,-2.40562 -7.46484,-3.06445 -3.12295,-0.65883 -7.09586,-0.98828 -11.91992,-0.98828 z m -593.35938,7.90625 c 2.84366,0 5.29304,0.11512 7.34961,0.3457 2.08197,0.23059 3.84576,0.65938 5.29297,1.28515 1.44722,0.6259 2.61527,1.4654 3.50391,2.51954 0.91403,1.05413 1.61329,2.40565 2.0957,4.05273 0.5078,1.64708 0.8379,3.62377 0.99024,5.92969 0.17771,2.30591 0.26562,5.007 0.26562,8.10351 0,3.09652 -0.0879,5.7976 -0.26562,8.10352 -0.15234,2.27297 -0.48244,4.23182 -0.99024,5.87891 -0.48241,1.61414 -1.18167,2.94977 -2.0957,4.0039 -0.88864,1.05413 -2.05669,1.8758 -3.50391,2.46875 -1.44721,0.59296 -3.211,1.00575 -5.29297,1.23633 -2.05657,0.23058 -4.50595,0.3457 -7.34961,0.3457 -2.43742,0 -4.60943,-0.0655 -6.51367,-0.19726 -1.90423,-0.16471 -3.58012,-0.49416 -5.02734,-0.98828 -1.44722,-0.52707 -2.67777,-1.26931 -3.69336,-2.22461 -0.9902,-0.98825 -1.80275,-2.28821 -2.4375,-3.90235 -0.63475,-1.64708 -1.10548,-3.68927 -1.41016,-6.12695 -0.27929,-2.43768 -0.41797,-5.3531 -0.41797,-8.74609 0,-3.36005 0.13868,-6.2437 0.41797,-8.64844 0.30468,-2.40474 0.77541,-4.41331 1.41016,-6.02734 0.63475,-1.64709 1.4473,-2.94899 2.4375,-3.9043 1.01559,-0.98825 2.24614,-1.72853 3.69336,-2.22266 1.44722,-0.52706 3.12311,-0.87435 5.02734,-1.03906 1.90424,-0.16471 4.07625,-0.24609 6.51367,-0.24609 z m 309.40039,0 c 2.43742,0 4.60749,0.0655 6.51172,0.19726 1.92963,0.13177 3.60553,0.44533 5.02735,0.93945 1.44723,0.46119 2.67777,1.1697 3.69336,2.125 1.01561,0.92237 1.82814,2.19055 2.4375,3.80469 0.63473,1.61414 1.09181,3.6226 1.37109,6.02735 0.30468,2.37179 0.45703,5.25544 0.45703,8.64843 0,3.45888 -0.15235,6.42196 -0.45703,8.89258 -0.27928,2.43768 -0.73636,4.49771 -1.37109,6.17774 -0.60936,1.68002 -1.42189,3.0137 -2.4375,4.00195 -1.01559,0.95531 -2.24613,1.69755 -3.69336,2.22461 -1.42182,0.52706 -3.09772,0.8724 -5.02735,1.03711 -1.90423,0.13175 -4.0743,0.19726 -6.51172,0.19726 -2.84366,0 -5.30671,-0.11512 -7.38867,-0.3457 -2.05658,-0.23059 -3.80864,-0.65926 -5.25586,-1.28516 -1.44721,-0.62589 -2.61526,-1.4654 -3.5039,-2.51953 -0.88865,-1.05413 -1.5879,-2.42154 -2.09571,-4.10156 -0.48249,-1.68002 -0.81259,-3.68849 -0.99023,-6.02734 -0.17764,-2.33886 -0.26563,-5.08956 -0.26563,-8.25196 0,-3.39299 0.1387,-6.27664 0.41797,-8.64843 0.30468,-2.40475 0.76173,-4.41321 1.3711,-6.02735 0.63473,-1.61414 1.46097,-2.88232 2.47656,-3.80469 1.01559,-0.9553 2.2344,-1.66381 3.65625,-2.125 1.44722,-0.49413 3.12311,-0.80769 5.02734,-0.93945 1.92961,-0.13175 4.11334,-0.19726 6.55078,-0.19726 z m 170.61914,0 c 3.04678,0 5.64851,0.26394 7.80665,0.79101 2.15813,0.52707 3.92388,1.49757 5.29492,2.91406 1.37106,1.4165 2.37305,3.22846 3.00781,5.43555 0.63473,2.17415 0.95312,5.1888 0.95312,9.04297 h -36.5625 c 0,-2.89887 0.14064,-5.36973 0.41993,-7.41211 0.30468,-2.07532 0.76173,-3.67295 1.37109,-4.79297 0.63473,-1.15296 1.459,-2.1413 2.47461,-2.96484 1.01558,-0.85648 2.23442,-1.49754 3.65625,-1.92578 1.44721,-0.4612 3.12312,-0.75887 5.02734,-0.89063 1.92965,-0.13175 4.1134,-0.19726 6.55078,-0.19726 z m -420.41796,26.08984 c 3.65613,0 6.72859,0.16472 9.21679,0.49414 2.4882,0.29647 4.48052,0.79065 5.97852,1.48242 1.52339,0.69178 2.60353,1.59678 3.23828,2.7168 0.66013,1.08707 0.99023,2.4227 0.99023,4.00391 0,1.58109 -0.27931,2.96449 -0.83789,4.15039 -0.55857,1.1859 -1.49809,2.17424 -2.81836,2.96484 -1.32027,0.7906 -3.07243,1.38204 -5.25585,1.77734 -2.15814,0.3953 -4.84972,0.59375 -8.07422,0.59375 -4.26549,0 -7.69344,-0.11512 -10.28321,-0.3457 -2.56437,-0.26353 -4.53129,-0.74182 -5.90234,-1.43359 -1.37105,-0.69178 -2.28517,-1.6464 -2.74219,-2.86524 -0.43163,-1.25178 -0.64844,-2.8654 -0.64844,-4.84179 0,-1.9765 0.20314,-3.54236 0.60938,-4.69532 0.43162,-1.15296 1.25785,-2.02619 2.47656,-2.61914 1.21872,-0.59295 2.94539,-0.97201 5.17969,-1.13672 2.2597,-0.16471 5.21692,-0.24609 8.87305,-0.24609 z"
       transform="matrix(0.26458333,0,0,0.26458333,-22.18413,-90.031796)" />
  </g>
</svg>
