<?xml version="1.0" encoding="UTF-8" standalone="no"?>
<svg
   xmlns:dc="http://purl.org/dc/elements/1.1/"
   xmlns:cc="http://creativecommons.org/ns#"
   xmlns:rdf="http://www.w3.org/1999/02/22-rdf-syntax-ns#"
   xmlns:svg="http://www.w3.org/2000/svg"
   xmlns="http://www.w3.org/2000/svg"
   xmlns:xlink="http://www.w3.org/1999/xlink"
   xmlns:sodipodi="http://sodipodi.sourceforge.net/DTD/sodipodi-0.dtd"
   xmlns:inkscape="http://www.inkscape.org/namespaces/inkscape"
   width="200.84645mm"
   height="123.66492mm"
   viewBox="0 0 200.84645 123.66492"
   version="1.1"
   id="svg8"
   inkscape:version="1.0.1 (1.0.1+r75)"
   sodipodi:docname="logo.svg">
  <defs
     id="defs2">
    <linearGradient
       inkscape:collect="always"
       id="linearGradient932">
      <stop
         style="stop-color:#cc29e9;stop-opacity:1"
         offset="0"
         id="stop928" />
      <stop
         style="stop-color:#4bbdee;stop-opacity:1"
         offset="1"
         id="stop930" />
    </linearGradient>
    <linearGradient
       inkscape:collect="always"
       xlink:href="#linearGradient932"
       id="linearGradient936"
       gradientUnits="userSpaceOnUse"
       x1="25.32972"
       y1="178.43613"
       x2="47.975365"
       y2="217.66061"
       gradientTransform="translate(41.141891,-244.59907)" />
  </defs>
  <sodipodi:namedview
     id="base"
     pagecolor="#ffffff"
     bordercolor="#666666"
     borderopacity="1.0"
     inkscape:pageopacity="0.0"
     inkscape:pageshadow="2"
     inkscape:zoom="1.0654565"
     inkscape:cx="368.01862"
     inkscape:cy="312.20547"
     inkscape:document-units="mm"
     inkscape:current-layer="g990"
     inkscape:document-rotation="0"
     showgrid="false"
     showguides="false"
     inkscape:guide-bbox="true"
     inkscape:snap-center="true"
     inkscape:snap-bbox="true"
     inkscape:snap-global="true"
     inkscape:window-width="1920"
     inkscape:window-height="1025"
     inkscape:window-x="0"
     inkscape:window-y="0"
     inkscape:window-maximized="1"
     fit-margin-top="0"
     fit-margin-left="0"
     fit-margin-right="0"
     fit-margin-bottom="0"
     inkscape:lockguides="false">
    <inkscape:grid
       type="xygrid"
       id="grid10"
       originx="22.18413"
       originy="90.031809" />
    <sodipodi:guide
       position="99.916068,123.66486"
       orientation="1,0"
       id="guide935"
       inkscape:locked="false" />
    <sodipodi:guide
       position="22.18258,-164.41526"
       orientation="0,-1"
       id="guide947"
       inkscape:locked="false" />
  </sodipodi:namedview>
  <metadata
     id="metadata5">
    <rdf:RDF>
      <cc:Work
         rdf:about="">
        <dc:format>image/svg+xml</dc:format>
        <dc:type
           rdf:resource="http://purl.org/dc/dcmitype/StillImage" />
        <dc:title></dc:title>
      </cc:Work>
    </rdf:RDF>
  </metadata>
  <g
     inkscape:label="Layer 1 copy"
     inkscape:groupmode="layer"
     id="g990"
     style="display:inline"
     transform="translate(22.18413,90.031796)">
    <path
       id="path974"
       style="fill:#303030;fill-opacity:1;stroke:none;stroke-width:0.261814;stroke-opacity:1"
       d="m 67.187358,-81.636382 a 36.654065,36.654065 0 0 0 -14.474051,8.356596 10.615804,10.615804 0 0 1 2.511992,2.213818 33.322627,33.322627 0 0 1 12.623001,-7.287927 10.615804,10.615804 0 0 1 -0.660942,-3.282487 z m 21.214728,5.17e-4 a 10.615804,10.615804 0 0 1 -0.661459,3.28197 33.322627,33.322627 0 0 1 12.623003,7.287927 10.615805,10.615805 0 0 1 2.51199,-2.213302 36.654065,36.654065 0 0 0 -14.473534,-8.356595 z m -46.295883,26.728083 a 36.654065,36.654065 0 0 0 -0.965833,8.357113 36.654065,36.654065 0 0 0 0.965316,8.356597 10.615804,10.615804 0 0 1 3.172933,-1.06867 33.322627,33.322627 0 0 1 -0.806669,-7.287927 33.322627,33.322627 0 0 1 0.807186,-7.287927 10.615804,10.615804 0 0 1 -3.172933,-1.069186 z m 71.377037,5.18e-4 a 10.615805,10.615805 0 0 1 -3.17345,1.068668 33.322627,33.322627 0 0 1 0.80719,7.287927 33.322627,33.322627 0 0 1 -0.80667,7.287927 10.615805,10.615805 0 0 1 3.17293,1.069186 36.654065,36.654065 0 0 0 0.96532,-8.357113 36.654065,36.654065 0 0 0 -0.96532,-8.356595 z M 55.225299,-22.03537 a 10.615804,10.615804 0 0 1 -2.512508,2.213303 36.654065,36.654065 0 0 0 14.537614,8.375714 10.556358,10.556358 0 0 1 0.687295,-3.2737 33.322627,33.322627 0 0 1 -12.712401,-7.315317 z m 45.138331,5.16e-4 a 33.322627,33.322627 0 0 1 -12.711887,7.315317 10.556358,10.556358 0 0 1 0.686779,3.273184 36.654065,36.654065 0 0 0 14.537098,-8.375198 10.615805,10.615805 0 0 1 -2.51199,-2.213303 z" />
    <path
       id="path976"
       style="fill:url(#linearGradient936);fill-opacity:1;stroke:none;stroke-width:1;stroke-miterlimit:4;stroke-dasharray:none;stroke-opacity:1"
       d="m 77.731935,-90.031735 a 7.967987,7.967987 0 0 0 -7.905462,7.967989 7.967987,7.967987 0 0 0 7.967991,7.967989 7.967987,7.967987 0 0 0 7.967988,-7.967989 7.967987,7.967987 0 0 0 -7.967988,-7.967989 7.967987,7.967987 0 0 0 -0.06253,0 z m -30.734041,17.756539 a 7.967987,7.967987 0 0 0 -6.859013,3.983736 7.967987,7.967987 0 0 0 2.916618,10.884606 7.967987,7.967987 0 0 0 10.88409,-2.916618 7.967987,7.967987 0 0 0 -2.916101,-10.884089 7.967987,7.967987 0 0 0 -4.025594,-1.067635 z m 61.531126,0 a 7.967987,7.967987 0 0 0 -3.96358,1.067635 7.967987,7.967987 0 0 0 -2.9161,10.884089 7.967987,7.967987 0 0 0 10.88409,2.916618 7.967987,7.967987 0 0 0 2.91662,-10.884606 7.967987,7.967987 0 0 0 -6.92103,-3.983736 z M 47.018564,-36.76212 a 7.967987,7.967987 0 0 0 -3.963582,1.067636 7.967987,7.967987 0 0 0 -2.916101,10.88409 7.967987,7.967987 0 0 0 10.88409,2.916619 7.967987,7.967987 0 0 0 2.916618,-10.884609 7.967987,7.967987 0 0 0 -6.921025,-3.983736 z m 61.489266,0 a 7.967987,7.967987 0 0 0 -6.85849,3.983736 7.967987,7.967987 0 0 0 2.9161,10.884609 7.967987,7.967987 0 0 0 10.88461,-2.916619 7.967987,7.967987 0 0 0 -2.91662,-10.88409 7.967987,7.967987 0 0 0 -4.0256,-1.067636 z m -30.713366,17.756539 a 7.967987,7.967987 0 0 0 -7.967991,7.96799 7.967987,7.967987 0 0 0 7.967991,7.9679883 7.967987,7.967987 0 0 0 7.967988,-7.9679883 7.967987,7.967987 0 0 0 -7.967988,-7.96799 z" />
    <path
       id="path978"
       style="fill:#303030;fill-opacity:1;stroke:none;stroke-width:0.25417;stroke-opacity:1"
       inkscape:transform-center-y="-1.4362199e-06"
       d="M 66.471611,-66.16294 55.148272,-46.5507 66.471611,-26.938461 H 89.117257 L 100.4406,-46.5507 89.117257,-66.16294 Z m 11.260295,11.644249 a 7.967987,7.967987 0 0 1 0.06253,0 7.967987,7.967987 0 0 1 7.967988,7.967991 7.967987,7.967987 0 0 1 -7.967988,7.967988 7.967987,7.967987 0 0 1 -7.96799,-7.967988 7.967987,7.967987 0 0 1 7.90546,-7.967991 z" />
    <path
       sodipodi:type="star"
       style="fill:none;fill-opacity:1;stroke:#c1f835;stroke-width:1.2;stroke-miterlimit:4;stroke-dasharray:none;stroke-opacity:1"
       id="path980"
       sodipodi:sides="6"
       sodipodi:cx="77.794434"
       sodipodi:cy="-46.55069"
       sodipodi:r1="18.646992"
       sodipodi:r2="16.148769"
       sodipodi:arg1="2.0943951"
       sodipodi:arg2="2.6179939"
       inkscape:flatsided="true"
       inkscape:rounded="0"
       inkscape:randomized="0"
       d="m 68.470938,-30.401921 -9.323496,-16.148769 9.323496,-16.148768 18.646991,0 9.323496,16.148768 -9.323496,16.148769 z"
       inkscape:transform-center-y="-1.1825931e-06" />
    <path
       id="rect1065"
       style="fill:#303030;fill-opacity:1;stroke:none;stroke-width:3.87719;stroke-miterlimit:4;stroke-dasharray:none;stroke-opacity:1"
       d="M 381.30469 370.94141 C 376.83608 370.94141 372.95107 371.15574 369.65039 371.58398 C 366.34972 372.01223 363.51946 372.65524 361.1582 373.51172 C 358.82234 374.33526 356.90425 375.37322 355.40625 376.625 C 353.90825 377.87678 352.72849 379.30969 351.86523 380.92383 C 351.00198 382.50503 350.40429 384.28327 350.07422 386.25977 C 349.76954 388.23626 349.61719 390.37768 349.61719 392.68359 C 349.61719 394.89068 349.71876 396.94876 349.92188 398.85938 C 350.12492 400.73698 350.55666 402.44979 351.2168 403.99805 C 351.90232 405.5463 352.89262 406.93155 354.1875 408.15039 C 355.48238 409.33629 357.20905 410.34052 359.36719 411.16406 C 361.52532 411.95466 364.19151 412.56395 367.36523 412.99219 C 370.56435 413.42043 374.39858 413.63477 378.86719 413.63477 L 388.92188 413.63477 C 392.98417 413.63477 396.27156 413.86499 398.78516 414.32617 C 401.29875 414.75442 403.24028 415.4947 404.61133 416.54883 C 406.00777 417.60296 406.93556 419.01998 407.39258 420.79883 C 407.87498 422.57768 408.11523 424.80048 408.11523 427.46875 C 408.11523 430.13703 407.77342 432.41139 407.08789 434.28906 C 406.40236 436.13379 405.22065 437.6322 403.54492 438.78516 C 401.8692 439.93811 399.62296 440.77762 396.80469 441.30469 C 393.98642 441.83176 390.44518 442.0957 386.17969 442.0957 L 376.42969 442.0957 C 372.77355 442.0957 369.70109 441.9965 367.21289 441.79883 C 364.75008 441.56824 362.75769 441.04229 361.23438 440.21875 C 359.71099 439.36227 358.61912 438.09409 357.95898 436.41406 C 357.29885 434.73404 356.96875 432.41006 356.96875 429.44531 L 349.65625 429.44531 C 349.65625 431.81711 349.8086 433.99225 350.11328 435.96875 C 350.41796 437.91231 350.95119 439.65878 351.71289 441.20703 C 352.49997 442.72235 353.54106 444.05603 354.83594 445.20898 C 356.13082 446.329 357.76764 447.26773 359.74805 448.02539 C 361.72845 448.75011 364.08993 449.29389 366.83203 449.65625 C 369.57413 450.01861 372.77355 450.19922 376.42969 450.19922 L 386.17969 450.19922 C 390.24206 450.19922 393.7833 449.95311 396.80469 449.45898 C 399.85147 448.9978 402.4532 448.30518 404.61133 447.38281 C 406.76946 446.46045 408.54692 445.3411 409.94336 444.02344 C 411.3398 442.70577 412.44534 441.20542 413.25781 439.52539 C 414.07029 437.84537 414.62892 436.00163 414.93359 433.99219 C 415.26366 431.94981 415.42773 429.77466 415.42773 427.46875 C 415.42773 425.16284 415.32616 423.0233 415.12305 421.04688 C 414.94532 419.07038 414.53904 417.29018 413.9043 415.70898 C 413.26955 414.09484 412.3691 412.66194 411.20117 411.41016 C 410.03324 410.15837 408.45892 409.12034 406.47852 408.29688 C 404.5235 407.44039 402.11123 406.79934 399.24219 406.37109 C 396.37314 405.94285 392.9334 405.72852 388.92188 405.72852 L 378.86719 405.72852 C 375.61729 405.72852 372.81047 405.64518 370.44922 405.48047 C 368.11335 405.28282 366.13471 404.97121 364.50977 404.54297 C 362.88482 404.11473 361.57614 403.57094 360.58594 402.91211 C 359.59573 402.25327 358.82225 401.44554 358.26367 400.49023 C 357.73047 399.50199 357.37498 398.3648 357.19727 397.08008 C 357.01955 395.79535 356.92969 394.33067 356.92969 392.68359 C 356.92969 390.01532 357.28518 387.79057 357.99609 386.01172 C 358.70701 384.23287 359.97662 382.8178 361.80469 381.76367 C 363.63276 380.70954 366.12119 379.96731 369.26953 379.53906 C 372.41787 379.07788 376.42984 378.84766 381.30469 378.84766 L 388.61719 378.84766 C 392.27332 378.84766 395.34383 378.96276 397.83203 379.19336 C 400.32023 379.39101 402.32622 379.91891 403.84961 380.77539 C 405.373 381.59893 406.46486 382.84926 407.125 384.5293 C 407.78514 386.20932 408.11523 388.5333 408.11523 391.49805 L 415.42773 391.49805 C 415.42773 389.12625 415.27538 386.96699 414.9707 385.02344 C 414.66603 383.07988 414.12107 381.35125 413.33398 379.83594 C 412.57229 378.28768 411.53121 376.96989 410.21094 375.88281 C 408.91606 374.7628 407.27721 373.83995 405.29688 373.11523 C 403.31647 372.35758 400.95499 371.81574 398.21289 371.48633 C 395.47079 371.12397 392.27332 370.94141 388.61719 370.94141 L 381.30469 370.94141 z M 0 372.52344 L 0 448.41992 L 7.3125 448.41992 L 7.3125 372.52344 L 0 372.52344 z M 545.83008 372.52344 L 545.83008 448.41992 L 553.14258 448.41992 L 553.14258 421.14453 L 555.58008 421.14453 L 583.60938 448.41992 L 594.57812 448.41992 L 562.2832 417.98242 L 593.35938 391.49805 L 582.39062 391.49805 L 555.58008 414.0293 L 553.14258 414.0293 L 553.14258 372.52344 L 545.83008 372.52344 z M 303.80273 375.93164 L 303.80273 391.49805 L 294.77539 391.49805 L 294.77539 399.30469 L 303.80273 399.30469 L 303.80273 427.86523 C 303.80273 431.81823 304.10744 435.11271 304.7168 437.74805 C 305.32615 440.38338 306.32817 442.49107 307.72461 444.07227 C 309.12105 445.65346 310.94929 446.77281 313.20898 447.43164 C 315.46868 448.09047 318.26183 448.41992 321.58789 448.41992 C 325.01552 448.41992 327.89656 448.00909 330.23242 447.18555 C 332.56828 446.36201 334.44731 444.97871 335.86914 443.03516 C 337.31636 441.0916 338.34385 438.50562 338.95312 435.27734 C 339.56248 432.01612 339.86719 427.96352 339.86719 423.12109 L 333.77539 423.12109 C 333.77539 425.98702 333.68553 428.40827 333.50781 430.38477 C 333.33008 432.32832 333.03905 433.94184 332.63281 435.22656 C 332.25197 436.51128 331.74404 437.51747 331.10938 438.24219 C 330.47463 438.93396 329.69919 439.45991 328.78516 439.82227 C 327.89651 440.15168 326.84371 440.35013 325.625 440.41602 C 324.43168 440.48188 323.07221 440.51367 321.54883 440.51367 C 319.6192 440.51367 317.98238 440.44816 316.63672 440.31641 C 315.31645 440.18464 314.24997 439.72419 313.4375 438.93359 C 312.62503 438.14299 312.02733 436.8907 311.64648 435.17773 C 311.29102 433.46477 311.11328 431.02763 311.11328 427.86523 L 311.11328 399.30469 L 338.64844 399.30469 L 338.64844 391.49805 L 311.11328 391.49805 L 311.11328 375.93164 L 303.80273 375.93164 z M 662.10352 375.93164 L 662.10352 391.49805 L 653.07617 391.49805 L 653.07617 399.30469 L 662.10352 399.30469 L 662.10352 427.86523 C 662.10352 431.81823 662.40819 435.11271 663.01758 437.74805 C 663.62691 440.38338 664.62893 442.49107 666.02539 444.07227 C 667.4218 445.65346 669.25006 446.77281 671.50977 447.43164 C 673.76947 448.09047 676.56261 448.41992 679.88867 448.41992 C 683.3163 448.41992 686.19733 448.00909 688.5332 447.18555 C 690.86905 446.36201 692.74809 444.97871 694.16992 443.03516 C 695.61713 441.0916 696.6465 438.50562 697.25586 435.27734 C 697.86519 432.01612 698.16992 427.96352 698.16992 423.12109 L 692.07617 423.12109 C 692.07617 425.98702 691.98648 428.40827 691.80859 430.38477 C 691.63086 432.32832 691.33984 433.94184 690.93359 435.22656 C 690.55277 436.51128 690.04489 437.51747 689.41016 438.24219 C 688.7754 438.93396 687.99998 439.45991 687.08594 439.82227 C 686.19729 440.15168 685.14448 440.35013 683.92578 440.41602 C 682.73246 440.48188 681.37301 440.51367 679.84961 440.51367 C 677.92001 440.51367 676.28316 440.44816 674.9375 440.31641 C 673.61721 440.18464 672.55075 439.72419 671.73828 438.93359 C 670.92581 438.14299 670.33007 436.8907 669.94922 435.17773 C 669.59377 433.46477 669.41602 431.02763 669.41602 427.86523 L 669.41602 399.30469 L 696.95117 399.30469 L 696.95117 391.49805 L 669.41602 391.49805 L 669.41602 375.93164 L 662.10352 375.93164 z M 263.12695 389.86719 C 259.47082 389.86719 256.2714 390.06368 253.5293 390.45898 C 250.7872 390.85428 248.414 391.51318 246.4082 392.43555 C 244.4278 393.35792 242.7773 394.57648 241.45703 396.0918 C 240.16215 397.57417 239.12107 399.43575 238.33398 401.67578 C 237.57229 403.91581 237.03897 406.5514 236.73438 409.58203 C 236.4297 412.61266 236.27734 416.1056 236.27734 420.05859 C 236.27734 423.87982 236.4297 427.27158 236.73438 430.23633 C 237.03897 433.16814 237.57229 435.72234 238.33398 437.89648 C 239.12107 440.07063 240.16215 441.89849 241.45703 443.38086 C 242.7773 444.86323 244.4278 446.06591 246.4082 446.98828 C 248.414 447.8777 250.7872 448.51876 253.5293 448.91406 C 256.2714 449.30936 259.47082 449.50781 263.12695 449.50781 C 268.0018 449.50781 272.01377 449.11287 275.16211 448.32227 C 278.31045 447.53167 280.79889 446.32899 282.62695 444.71484 C 284.45502 443.06776 285.72463 440.97596 286.43555 438.43945 C 287.14646 435.90295 287.50195 432.90418 287.50195 429.44531 L 280.18945 429.44531 C 280.18945 430.76298 280.16408 431.99938 280.11328 433.15234 C 280.0625 434.27236 279.87108 435.31041 279.54102 436.26562 C 279.23634 437.18799 278.74217 438.01161 278.05664 438.73633 C 277.37111 439.46104 276.39254 440.07033 275.12305 440.56445 C 273.85356 441.05858 272.24213 441.43765 270.28711 441.70117 C 268.35748 441.9647 265.97061 442.0957 263.12695 442.0957 C 259.87706 442.0957 257.13469 441.94687 254.90039 441.65039 C 252.69148 441.35391 250.86324 440.85974 249.41602 440.16797 C 247.9688 439.47619 246.85154 438.57119 246.06445 437.45117 C 245.27737 436.33115 244.70702 434.96375 244.35156 433.34961 C 243.99611 431.70253 243.7793 429.79134 243.70312 427.61719 C 243.65242 425.41009 243.62695 422.89157 243.62695 420.05859 C 243.62695 417.15973 243.65242 414.60553 243.70312 412.39844 C 243.7793 410.1584 243.99611 408.21544 244.35156 406.56836 C 244.70702 404.92128 245.27737 403.53799 246.06445 402.41797 C 246.85154 401.26501 247.9688 400.35805 249.41602 399.69922 C 250.86324 399.00744 252.69148 398.51327 254.90039 398.2168 C 257.13469 397.92032 259.87706 397.77344 263.12695 397.77344 C 265.97061 397.77344 268.35748 397.88856 270.28711 398.11914 C 272.24213 398.34973 273.85356 398.69507 275.12305 399.15625 C 276.39254 399.61743 277.37111 400.19494 278.05664 400.88672 C 278.74217 401.54555 279.23634 402.30172 279.54102 403.1582 C 279.87107 404.01469 280.06248 404.97126 280.11328 406.02539 C 280.16408 407.07952 280.18945 408.21475 280.18945 409.43359 L 287.50195 409.43359 C 287.50195 406.04061 287.14646 403.12518 286.43555 400.6875 C 285.72463 398.21688 284.45502 396.19253 282.62695 394.61133 C 280.79889 392.99719 278.31045 391.81039 275.16211 391.05273 C 272.01377 390.26214 268.0018 389.86719 263.12695 389.86719 z M 511.74414 389.86719 C 508.08803 389.86719 504.88858 390.06368 502.14648 390.45898 C 499.40439 390.85428 497.03119 391.51318 495.02539 392.43555 C 493.04499 393.35792 491.39451 394.57648 490.07422 396.0918 C 488.77935 397.57417 487.73827 399.43575 486.95117 401.67578 C 486.1895 403.91581 485.65627 406.5514 485.35156 409.58203 C 485.04688 412.61266 484.89453 416.1056 484.89453 420.05859 C 484.89453 423.87982 485.04688 427.27158 485.35156 430.23633 C 485.65627 433.16814 486.1895 435.72234 486.95117 437.89648 C 487.73827 440.07063 488.77935 441.89849 490.07422 443.38086 C 491.39451 444.86323 493.04499 446.06592 495.02539 446.98828 C 497.03119 447.8777 499.40439 448.51876 502.14648 448.91406 C 504.88858 449.30936 508.08803 449.50781 511.74414 449.50781 C 516.619 449.50781 520.63095 449.11287 523.7793 448.32227 C 526.92764 447.53167 529.41611 446.32899 531.24414 444.71484 C 533.07222 443.06776 534.34181 440.97596 535.05273 438.43945 C 535.76364 435.90295 536.11914 432.90418 536.11914 429.44531 L 528.80664 429.44531 C 528.80664 430.76298 528.78137 431.99938 528.73047 433.15234 C 528.67972 434.27236 528.48828 435.31037 528.1582 436.26562 C 527.85352 437.18799 527.35933 438.01161 526.67383 438.73633 C 525.9883 439.46104 525.00975 440.07033 523.74023 440.56445 C 522.47074 441.05858 520.8593 441.43765 518.9043 441.70117 C 516.97467 441.9647 514.58781 442.0957 511.74414 442.0957 C 508.49425 442.0957 505.75188 441.94687 503.51758 441.65039 C 501.30867 441.35391 499.48043 440.85974 498.0332 440.16797 C 496.586 439.47619 495.46874 438.57119 494.68164 437.45117 C 493.89457 436.33115 493.3242 434.96375 492.96875 433.34961 C 492.6132 431.70253 492.39641 429.79134 492.32031 427.61719 C 492.26941 425.41009 492.24414 422.89157 492.24414 420.05859 C 492.24414 417.15973 492.26941 414.60553 492.32031 412.39844 C 492.39648 410.1584 492.61327 408.21544 492.96875 406.56836 C 493.3242 404.92128 493.89457 403.53799 494.68164 402.41797 C 495.46874 401.26501 496.586 400.35805 498.0332 399.69922 C 499.48043 399.00744 501.30867 398.51327 503.51758 398.2168 C 505.75188 397.92032 508.49425 397.77344 511.74414 397.77344 C 514.58781 397.77344 516.97467 397.88856 518.9043 398.11914 C 520.8593 398.34973 522.47074 398.69507 523.74023 399.15625 C 525.00975 399.61743 525.9883 400.19494 526.67383 400.88672 C 527.35933 401.54555 527.85352 402.30172 528.1582 403.1582 C 528.48838 404.01469 528.67982 404.97126 528.73047 406.02539 C 528.78137 407.07952 528.80664 408.21475 528.80664 409.43359 L 536.11914 409.43359 C 536.11914 406.04061 535.76364 403.12518 535.05273 400.6875 C 534.34181 398.21688 533.07222 396.19253 531.24414 394.61133 C 529.41611 392.99719 526.92764 391.81039 523.7793 391.05273 C 520.63095 390.26214 516.619 389.86719 511.74414 389.86719 z M 46.310547 389.91602 C 43.517666 389.91602 41.105405 390.16408 39.074219 390.6582 C 37.043033 391.15233 35.304638 391.7775 33.857422 392.53516 C 32.435591 393.29282 31.267549 394.11644 30.353516 395.00586 C 29.464871 395.89529 28.753886 396.73479 28.220703 397.52539 C 27.712898 398.28305 27.357409 398.94194 27.154297 399.50195 C 26.951185 400.06196 26.837898 400.39141 26.8125 400.49023 L 26.8125 391.49805 L 19.5 391.49805 L 19.5 448.41992 L 26.8125 448.41992 L 26.8125 413.14062 C 26.8125 410.83483 27.05275 408.74291 27.535156 406.86523 C 28.042951 404.98756 28.931679 403.38993 30.201172 402.07227 C 31.470662 400.72166 33.209054 399.6837 35.417969 398.95898 C 37.626881 398.20133 40.445421 397.82227 43.873047 397.82227 C 46.995994 397.82227 49.509839 398.15171 51.414062 398.81055 C 53.343688 399.43644 54.830111 400.4744 55.871094 401.92383 C 56.937466 403.37326 57.634776 405.2825 57.964844 407.6543 C 58.320301 409.99315 58.498047 412.8768 58.498047 416.30273 L 58.498047 448.41992 L 65.810547 448.41992 L 65.810547 413.14062 C 65.810547 410.83483 66.050797 408.74291 66.533203 406.86523 C 67.041 404.98756 67.929728 403.38993 69.199219 402.07227 C 70.468709 400.72166 72.209055 399.6837 74.417969 398.95898 C 76.626883 398.20133 79.445422 397.82227 82.873047 397.82227 C 85.995994 397.82227 88.509838 398.15171 90.414062 398.81055 C 92.343688 399.43644 93.828159 400.4744 94.869141 401.92383 C 95.935513 403.37326 96.632823 405.2825 96.962891 407.6543 C 97.318348 409.99315 97.496094 412.8768 97.496094 416.30273 L 97.496094 448.41992 L 104.80859 448.41992 L 104.80859 416.30273 C 104.80859 413.46975 104.73242 410.85005 104.58008 408.44531 C 104.42774 406.00763 104.11131 403.8166 103.62891 401.87305 C 103.17189 399.89655 102.4979 398.16792 101.60938 396.68555 C 100.74612 395.20317 99.59175 393.96872 98.144531 392.98047 C 96.697312 391.95928 94.919854 391.20116 92.8125 390.70703 C 90.730535 390.17997 88.230375 389.91602 85.310547 389.91602 C 81.755973 389.91602 78.746015 390.29508 76.283203 391.05273 C 73.820391 391.77745 71.763619 392.68246 70.113281 393.76953 C 68.488333 394.8566 67.218709 395.99379 66.304688 397.17969 C 65.390654 398.36559 64.718736 399.40355 64.287109 400.29297 C 63.753923 398.61294 63.029268 397.13043 62.115234 395.8457 C 61.226591 394.52804 60.0605 393.44047 58.613281 392.58398 C 57.191452 391.69456 55.464779 391.03566 53.433594 390.60742 C 51.427799 390.14624 49.052646 389.91602 46.310547 389.91602 z M 141.37109 389.91602 C 137.89269 389.91602 134.9843 390.14624 132.64844 390.60742 C 130.31257 391.0686 128.39644 391.64612 126.89844 392.33789 C 125.42583 393.02967 124.29489 393.78779 123.50781 394.61133 C 122.74611 395.40193 122.20116 396.12632 121.87109 396.78516 L 121.87109 391.49805 L 114.55859 391.49805 L 114.55859 467.39453 L 121.87109 467.39453 L 121.87109 442.0957 C 122.20116 442.85336 122.74611 443.66109 123.50781 444.51758 C 124.29489 445.37406 125.42583 446.17984 126.89844 446.9375 C 128.39644 447.66221 130.31257 448.27161 132.64844 448.76562 C 134.9843 449.25975 137.89269 449.50781 141.37109 449.50781 C 146.24594 449.50781 150.38292 449.04737 153.78516 448.125 C 157.18739 447.20264 159.95515 445.62089 162.08789 443.38086 C 164.22064 441.14083 165.76956 438.12618 166.73438 434.33789 C 167.69908 430.5496 168.18164 425.79044 168.18164 420.05859 C 168.18164 414.22792 167.69908 409.38542 166.73438 405.53125 C 165.76956 401.64413 164.22064 398.54615 162.08789 396.24023 C 159.95515 393.93432 157.18739 392.30492 153.78516 391.34961 C 150.38292 390.3943 146.24594 389.91602 141.37109 389.91602 z M 203.41016 389.91602 C 198.83999 389.91602 194.99404 390.21174 191.87109 390.80469 C 188.74815 391.39763 186.22064 392.35421 184.29102 393.67188 C 182.38678 394.9565 181.01755 396.63561 180.17969 398.71094 C 179.36721 400.78626 178.96094 403.32262 178.96094 406.32031 L 186.27148 406.32031 C 186.27148 404.54147 186.53908 403.10856 187.07227 402.02148 C 187.60545 400.90147 188.51957 400.03019 189.81445 399.4043 C 191.10934 398.77843 192.8614 398.36564 195.07031 398.16797 C 197.27922 397.93739 200.0587 397.82227 203.41016 397.82227 C 205.56829 397.82227 207.48638 397.90365 209.16211 398.06836 C 210.83784 398.20013 212.29691 398.52958 213.54102 399.05664 C 214.8105 399.58371 215.87698 400.37555 216.74023 401.42969 C 217.60349 402.45088 218.3008 403.83417 218.83398 405.58008 C 219.39256 407.32599 219.78721 409.49917 220.01562 412.10156 C 220.26952 414.70395 220.39648 417.85155 220.39648 421.54102 C 220.06642 420.98101 219.51951 420.37173 218.75781 419.71289 C 217.99612 419.05406 216.86714 418.44282 215.36914 417.88281 C 213.89653 417.28986 211.99211 416.81353 209.65625 416.45117 C 207.32039 416.05587 204.41395 415.85742 200.93555 415.85742 C 198.49812 415.85742 196.19915 415.90704 194.04102 416.00586 C 191.88288 416.10468 189.89057 416.35275 188.0625 416.74805 C 186.25982 417.14335 184.64839 417.7189 183.22656 418.47656 C 181.80473 419.23422 180.5859 420.28807 179.57031 421.63867 C 178.58011 422.98928 177.81834 424.67025 177.28516 426.67969 C 176.77736 428.65619 176.52344 431.07744 176.52344 433.94336 C 176.52344 436.67751 176.99222 439.03131 177.93164 441.00781 C 178.89645 442.98431 180.40827 444.61567 182.46484 445.90039 C 184.52142 447.15217 187.17393 448.07502 190.42383 448.66797 C 193.67372 449.29386 197.59585 449.60742 202.19141 449.60742 C 205.64442 449.60742 208.42585 449.34347 210.5332 448.81641 C 212.66595 448.32228 214.36528 447.62966 215.63477 446.74023 C 216.90426 445.81787 217.91995 444.76402 218.68164 443.57812 C 219.74801 441.99702 220.32031 441.00858 220.39648 440.61328 L 220.39648 448.41992 L 227.70898 448.41992 L 227.70898 421.54102 C 227.70898 415.31505 227.27732 410.17487 226.41406 406.12305 C 225.5762 402.03828 224.19134 398.79341 222.26172 396.38867 C 220.35748 393.98393 217.85732 392.30492 214.75977 391.34961 C 211.66221 390.3943 207.87876 389.91602 203.41016 389.91602 z M 450.77148 389.91602 C 445.89663 389.91602 441.75769 390.37646 438.35547 391.29883 C 434.95323 392.18825 432.18548 393.75411 430.05273 395.99414 C 427.91999 398.23417 426.37106 401.26471 425.40625 405.08594 C 424.44142 408.90717 423.95898 413.73378 423.95898 419.56445 C 423.95898 425.39512 424.44142 430.23762 425.40625 434.0918 C 426.37106 437.94597 427.91999 441.00828 430.05273 443.28125 C 432.18548 445.55423 434.95323 447.16969 438.35547 448.125 C 441.75769 449.04737 445.89663 449.50781 450.77148 449.50781 C 455.64632 449.50781 459.78331 449.04737 463.18555 448.125 C 466.58778 447.16969 469.35554 445.55423 471.48828 443.28125 C 473.62102 441.00828 475.16993 437.94597 476.13477 434.0918 C 477.09958 430.23762 477.58203 425.39512 477.58203 419.56445 C 477.58203 413.73378 477.09958 408.90717 476.13477 405.08594 C 475.16993 401.26471 473.62102 398.23417 471.48828 395.99414 C 469.35554 393.75411 466.58778 392.18825 463.18555 391.29883 C 459.78331 390.37646 455.64632 389.91602 450.77148 389.91602 z M 621.39062 389.91602 C 616.51582 389.91602 612.37686 390.3943 608.97461 391.34961 C 605.5724 392.30492 602.80461 393.98393 600.67188 396.38867 C 598.53914 398.79341 596.99023 402.03828 596.02539 406.12305 C 595.0606 410.17487 594.57812 415.31505 594.57812 421.54102 C 594.57813 426.97639 595.0606 431.48944 596.02539 435.08008 C 596.99023 438.67072 598.53914 441.53653 600.67188 443.67773 C 602.80461 445.81894 605.5724 447.33323 608.97461 448.22266 C 612.37686 449.07914 616.51582 449.50781 621.39062 449.50781 C 625.9608 449.50781 629.79503 449.19425 632.89258 448.56836 C 636.01553 447.97541 638.52937 447.02079 640.43359 445.70312 C 642.33782 444.35255 643.69531 442.60605 644.50781 440.46484 C 645.34566 438.2907 645.76367 435.67292 645.76367 432.60938 L 638.45312 432.60938 C 638.45313 434.58584 638.18553 436.19939 637.65234 437.45117 C 637.14455 438.67001 636.24408 439.62463 634.94922 440.31641 C 633.6543 441.00819 631.90227 441.48647 629.69336 441.75 C 627.50983 441.98058 624.74206 442.0957 621.39062 442.0957 C 617.73452 442.0957 614.66204 441.93098 612.17383 441.60156 C 609.68564 441.2392 607.67963 440.41558 606.15625 439.13086 C 604.63287 437.84613 603.54099 435.81983 602.88086 433.05273 C 602.2207 430.25269 601.89062 426.67837 601.89062 422.33008 L 645.1543 422.33008 L 645.76367 419.16797 C 645.76367 416.23616 645.6367 413.45369 645.38281 410.81836 C 645.1543 408.18303 644.71091 405.89278 644.05078 403.94922 C 643.41602 401.97272 642.52732 400.09526 641.38477 398.31641 C 640.26761 396.53756 638.79485 395.02131 636.9668 393.76953 C 635.16414 392.51775 632.9804 391.56313 630.41602 390.9043 C 627.87703 390.24546 624.86903 389.91602 621.39062 389.91602 z M 734.73047 389.91602 C 729.85563 389.91602 725.71671 390.19585 722.31445 390.75586 C 718.91222 391.31587 716.14446 392.23872 714.01172 393.52344 C 711.87898 394.77522 710.33007 396.42246 709.36523 398.46484 C 708.40045 400.47428 707.91797 402.96103 707.91797 405.92578 C 707.91797 408.09993 708.07034 410.12623 708.375 412.00391 C 708.67968 413.84864 709.20117 415.41254 709.9375 416.69727 C 710.67378 417.94905 711.66408 418.95328 712.9082 419.71094 C 714.1777 420.4686 715.75203 421.06199 717.63086 421.49023 C 719.53511 421.88553 721.795 422.14948 724.41016 422.28125 C 727.02529 422.413 730.05869 422.47852 733.51172 422.47852 C 736.35538 422.47852 738.77939 422.54403 740.78516 422.67578 C 742.79095 422.7746 744.46684 422.97305 745.8125 423.26953 C 747.18356 423.53306 748.26371 423.87839 749.05078 424.30664 C 749.83788 424.73488 750.43362 425.37789 750.83984 426.23438 C 751.24609 427.05791 751.49999 427.89742 751.60156 428.75391 C 751.72855 429.57745 751.79297 430.53402 751.79297 431.62109 C 751.79297 432.80699 751.72855 433.89261 751.60156 434.88086 C 751.50002 435.83617 751.23438 436.7094 750.80273 437.5 C 750.37109 438.2906 749.73628 438.96539 748.89844 439.52539 C 748.06057 440.0854 746.91793 440.56368 745.4707 440.95898 C 744.0235 441.35429 742.22061 441.65196 740.0625 441.84961 C 737.92974 442.01432 735.33975 442.0957 732.29297 442.0957 C 728.94151 442.0957 726.16206 441.98058 723.95312 441.75 C 721.76963 441.48647 720.02926 441.00819 718.73438 440.31641 C 717.43951 439.62463 716.52538 438.67001 715.99219 437.45117 C 715.4844 436.19939 715.23047 434.58586 715.23047 432.60938 L 707.91797 432.60938 C 707.91797 435.60705 708.32425 438.14343 709.13672 440.21875 C 709.97456 442.29407 711.34575 443.98898 713.25 445.30664 C 715.15423 446.59137 717.65636 447.53205 720.75391 448.125 C 723.87688 448.71795 727.72281 449.01367 732.29297 449.01367 C 735.94911 449.01367 739.14854 448.86483 741.89062 448.56836 C 744.65812 448.30483 747.03132 447.894 749.01172 447.33398 C 750.99214 446.74104 752.63092 445.98291 753.92578 445.06055 C 755.24605 444.10524 756.28715 442.9859 757.04883 441.70117 C 757.81055 440.38351 758.34378 438.88315 758.64844 437.20312 C 758.95312 435.49017 759.10547 433.56307 759.10547 431.42188 C 759.10547 429.28067 758.95312 427.4032 758.64844 425.78906 C 758.34378 424.14198 757.81055 422.72692 757.04883 421.54102 C 756.31255 420.32218 755.32224 419.20088 754.07812 418.17969 C 752.83404 417.1585 751.2597 416.40037 749.35547 415.90625 C 747.45122 415.41212 745.1913 415.06679 742.57617 414.86914 C 739.98641 414.67147 736.96475 414.57227 733.51172 414.57227 L 726.23828 414.57227 C 724.23251 414.53931 722.54293 414.44206 721.17188 414.27734 C 719.82621 414.07967 718.75976 413.79789 717.97266 413.43555 C 717.18558 413.07319 716.58982 412.54725 716.18359 411.85547 C 715.77734 411.16369 715.50978 410.29046 715.38281 409.23633 C 715.28127 408.14925 715.23047 407.0458 715.23047 405.92578 C 715.23047 404.01517 715.56057 402.51676 716.2207 401.42969 C 716.88084 400.34261 717.97269 399.53488 719.49609 399.00781 C 721.01947 398.48074 723.02546 398.1513 725.51367 398.01953 C 728.00186 397.88778 731.07433 397.82227 734.73047 397.82227 C 738.0819 397.82227 740.84964 397.95327 743.0332 398.2168 C 745.24211 398.44737 746.99417 398.89193 748.28906 399.55078 C 749.58393 400.17667 750.4844 401.04991 750.99219 402.16992 C 751.52538 403.28994 751.79297 404.74068 751.79297 406.51953 L 759.10547 406.51953 C 759.10547 403.65361 758.7363 401.18275 758 399.10742 C 757.2637 397.0321 755.96869 395.31936 754.11523 393.96875 C 752.28715 392.5852 749.79871 391.56313 746.65039 390.9043 C 743.52744 390.24547 739.55453 389.91602 734.73047 389.91602 z M 141.37109 397.82227 C 144.21475 397.82227 146.66413 397.93739 148.7207 398.16797 C 150.80267 398.39856 152.56646 398.82735 154.01367 399.45312 C 155.46089 400.07902 156.62894 400.91852 157.51758 401.97266 C 158.43161 403.02679 159.13087 404.37831 159.61328 406.02539 C 160.12108 407.67247 160.45118 409.64916 160.60352 411.95508 C 160.78123 414.26099 160.86914 416.96208 160.86914 420.05859 C 160.86914 423.15511 160.78123 425.85619 160.60352 428.16211 C 160.45118 430.43508 160.12108 432.39393 159.61328 434.04102 C 159.13087 435.65516 158.43161 436.99079 157.51758 438.04492 C 156.62894 439.09905 155.46089 439.92072 154.01367 440.51367 C 152.56646 441.10663 150.80267 441.51942 148.7207 441.75 C 146.66413 441.98058 144.21475 442.0957 141.37109 442.0957 C 138.93367 442.0957 136.76166 442.03019 134.85742 441.89844 C 132.95319 441.73373 131.2773 441.40428 129.83008 440.91016 C 128.38286 440.38309 127.15231 439.64085 126.13672 438.68555 C 125.14652 437.6973 124.33397 436.39734 123.69922 434.7832 C 123.06447 433.13612 122.59374 431.09393 122.28906 428.65625 C 122.00977 426.21857 121.87109 423.30315 121.87109 419.91016 C 121.87109 416.55011 122.00977 413.66646 122.28906 411.26172 C 122.59374 408.85698 123.06447 406.84841 123.69922 405.23438 C 124.33397 403.58729 125.14652 402.28539 126.13672 401.33008 C 127.15231 400.34183 128.38286 399.60155 129.83008 399.10742 C 131.2773 398.58036 132.95319 398.23307 134.85742 398.06836 C 136.76166 397.90365 138.93367 397.82227 141.37109 397.82227 z M 450.77148 397.82227 C 453.2089 397.82227 455.37897 397.88778 457.2832 398.01953 C 459.21283 398.1513 460.88873 398.46486 462.31055 398.95898 C 463.75778 399.42017 464.98832 400.12868 466.00391 401.08398 C 467.01952 402.00635 467.83205 403.27453 468.44141 404.88867 C 469.07614 406.50281 469.53322 408.51127 469.8125 410.91602 C 470.11718 413.28781 470.26953 416.17146 470.26953 419.56445 C 470.26953 423.02333 470.11718 425.98641 469.8125 428.45703 C 469.53322 430.89471 469.07614 432.95474 468.44141 434.63477 C 467.83205 436.31479 467.01952 437.64847 466.00391 438.63672 C 464.98832 439.59203 463.75778 440.33427 462.31055 440.86133 C 460.88873 441.38839 459.21283 441.73373 457.2832 441.89844 C 455.37897 442.03019 453.2089 442.0957 450.77148 442.0957 C 447.92782 442.0957 445.46477 441.98058 443.38281 441.75 C 441.32623 441.51941 439.57417 441.09074 438.12695 440.46484 C 436.67974 439.83895 435.51169 438.99944 434.62305 437.94531 C 433.7344 436.89118 433.03515 435.52377 432.52734 433.84375 C 432.04485 432.16373 431.71475 430.15526 431.53711 427.81641 C 431.35947 425.47755 431.27148 422.72685 431.27148 419.56445 C 431.27148 416.17146 431.41018 413.28781 431.68945 410.91602 C 431.99413 408.51127 432.45118 406.50281 433.06055 404.88867 C 433.69528 403.27453 434.52152 402.00635 435.53711 401.08398 C 436.5527 400.12868 437.77151 399.42017 439.19336 398.95898 C 440.64058 398.46485 442.31647 398.15129 444.2207 398.01953 C 446.15031 397.88778 448.33404 397.82227 450.77148 397.82227 z M 621.39062 397.82227 C 624.4374 397.82227 627.03913 398.08621 629.19727 398.61328 C 631.3554 399.14035 633.12115 400.11085 634.49219 401.52734 C 635.86325 402.94384 636.86524 404.7558 637.5 406.96289 C 638.13473 409.13704 638.45312 412.15169 638.45312 416.00586 L 601.89062 416.00586 C 601.89062 413.10699 602.03126 410.63613 602.31055 408.59375 C 602.61523 406.51843 603.07228 404.9208 603.68164 403.80078 C 604.31637 402.64782 605.14064 401.65948 606.15625 400.83594 C 607.17183 399.97946 608.39067 399.3384 609.8125 398.91016 C 611.25971 398.44896 612.93562 398.15129 614.83984 398.01953 C 616.76949 397.88778 618.95324 397.82227 621.39062 397.82227 z M 200.97266 423.91211 C 204.62879 423.91211 207.70125 424.07683 210.18945 424.40625 C 212.67765 424.70272 214.66997 425.1969 216.16797 425.88867 C 217.69136 426.58045 218.7715 427.48545 219.40625 428.60547 C 220.06638 429.69254 220.39648 431.02817 220.39648 432.60938 C 220.39648 434.19047 220.11717 435.57387 219.55859 436.75977 C 219.00002 437.94567 218.0605 438.93401 216.74023 439.72461 C 215.41996 440.51521 213.6678 441.10665 211.48438 441.50195 C 209.32624 441.89725 206.63466 442.0957 203.41016 442.0957 C 199.14467 442.0957 195.71672 441.98058 193.12695 441.75 C 190.56258 441.48647 188.59566 441.00818 187.22461 440.31641 C 185.85356 439.62463 184.93944 438.67001 184.48242 437.45117 C 184.05079 436.19939 183.83398 434.58577 183.83398 432.60938 C 183.83398 430.63288 184.03712 429.06702 184.44336 427.91406 C 184.87498 426.7611 185.70121 425.88787 186.91992 425.29492 C 188.13864 424.70197 189.86531 424.32291 192.09961 424.1582 C 194.35931 423.99349 197.31653 423.91211 200.97266 423.91211 z "
       transform="matrix(0.26458333,0,0,0.26458333,-22.18413,-90.031796)" />
  </g>
</svg>
